<?xml version="1.0" encoding="UTF-8" standalone="no"?>
<svg
   xmlns:dc="http://purl.org/dc/elements/1.1/"
   xmlns:cc="http://creativecommons.org/ns#"
   xmlns:rdf="http://www.w3.org/1999/02/22-rdf-syntax-ns#"
   xmlns:svg="http://www.w3.org/2000/svg"
   xmlns="http://www.w3.org/2000/svg"
   xmlns:sodipodi="http://sodipodi.sourceforge.net/DTD/sodipodi-0.dtd"
   xmlns:inkscape="http://www.inkscape.org/namespaces/inkscape"
   width="64.28952mm"
   height="70.79454mm"
   viewBox="0 0 64.28952 70.79454"
   version="1.1"
   id="svg7783"
   sodipodi:docname="live-migration.svg"
   inkscape:version="0.92.2 (5c3e80d, 2017-08-06)">
  <sodipodi:namedview
     pagecolor="#ffffff"
     bordercolor="#666666"
     borderopacity="1"
     objecttolerance="10"
     gridtolerance="10"
     guidetolerance="10"
     inkscape:pageopacity="0"
     inkscape:pageshadow="2"
     inkscape:window-width="1920"
     inkscape:window-height="1016"
     id="namedview17"
     showgrid="false"
     inkscape:zoom="1.247354"
     inkscape:cx="123.75955"
     inkscape:cy="133.78496"
     inkscape:window-x="0"
     inkscape:window-y="27"
     inkscape:window-maximized="1"
     inkscape:current-layer="svg7783" />
  <defs
     id="defs7777" />
  <metadata
     id="metadata7780">
    <rdf:RDF>
      <cc:Work
         rdf:about="">
        <dc:format>image/svg+xml</dc:format>
        <dc:type
           rdf:resource="http://purl.org/dc/dcmitype/StillImage" />
        <dc:title></dc:title>
      </cc:Work>
    </rdf:RDF>
  </metadata>
  <path
     id="rect4897-6-9-0-8-0-4-2-6-2-9-5"
     d="m 50.66512,56.54563 -0.001,0.003 -9.37566,13.70097 c 0.21677,0.22646 0.52074,0.36897 0.86041,0.36897 h 11.13834 c 0.6605,0 1.19218,-0.53219 1.19218,-1.19269 V 57.05195 h -2.84066 c -0.40405,0 -0.75814,-0.20021 -0.97358,-0.50591 z"
     style="fill:#00a69a;fill-opacity:1;stroke:none;stroke-width:0.35268959;stroke-linecap:round;stroke-linejoin:round;stroke-miterlimit:4;stroke-dasharray:none;stroke-opacity:1" />
  <path
     style="fill:#00a69a;fill-opacity:1;stroke:#000000;stroke-width:1.33333337;stroke-miterlimit:4;stroke-dasharray:none;stroke-opacity:1"
     d="M 10.318359 0.66601562 C 4.9715374 0.66601562 0.66601563 4.9715117 0.66601562 10.318359 L 0.66601562 133.21289 C 0.66601563 138.55974 4.9715374 142.86523 10.318359 142.86523 L 65.791016 142.86523 C 71.137875 142.86523 75.441406 138.55974 75.441406 133.21289 L 75.441406 10.318359 C 75.441406 4.9715117 71.137875 0.66601563 65.791016 0.66601562 L 10.318359 0.66601562 z M 38.054688 124.45703 A 3.1301671 3.1301671 0 0 1 41.185547 127.58789 A 3.1301671 3.1301671 0 0 1 38.054688 130.7168 A 3.1301671 3.1301671 0 0 1 34.923828 127.58789 A 3.1301671 3.1301671 0 0 1 38.054688 124.45703 z "
     transform="scale(0.26458334)"
     id="rect4897-5-7-7-1" />
  <path
     style="fill:#00a69a;fill-opacity:1;stroke:#000000;stroke-width:0.35277778;stroke-linecap:butt;stroke-linejoin:miter;stroke-miterlimit:4;stroke-dasharray:none;stroke-opacity:1"
     d="M 0.17639,29.340411 H 19.96078"
     id="path4901-2-4-6-9" />
  <path
     style="fill:#00a69a;fill-opacity:1;stroke:#000000;stroke-width:0.35277778;stroke-linecap:butt;stroke-linejoin:miter;stroke-miterlimit:4;stroke-dasharray:none;stroke-opacity:1"
     d="M 0.17639,6.0130564 H 19.96078"
     id="path4903-9-5-5-20" />
  <path
     style="fill:#00a69a;fill-opacity:1;stroke:#000000;stroke-width:0.35277778;stroke-linecap:round;stroke-linejoin:round;stroke-miterlimit:4;stroke-dasharray:none;stroke-opacity:1"
     d="m 42.15097,26.696837 c -0.6605,0 -1.19229,0.531791 -1.19229,1.192293 v 15.181373 c 0,0.660501 0.53179,1.192292 1.19229,1.192292 H 53.2892 c 0.6605,0 1.19211,-0.531791 1.19211,-1.192292 V 30.696558 h -2.84038 c -0.6605,0 -1.19229,-0.531613 -1.19229,-1.192116 v -2.807605 z"
     id="rect4897-6-9-0-8-2" />
  <path
     style="fill:#ffffff;fill-opacity:1;stroke:#000000;stroke-width:0.35277778;stroke-linecap:round;stroke-linejoin:round;stroke-miterlimit:4;stroke-dasharray:none;stroke-opacity:1"
     d="m 50.44864,26.696836 4.03267,3.999722"
     id="path4936-3-6-1-8" />
  <path
     style="fill:none;stroke:#000000;stroke-width:0.35277778;stroke-linecap:round;stroke-linejoin:round;stroke-miterlimit:4;stroke-dasharray:none;stroke-opacity:1"
     d="m 51.781,0.33087896 c -0.6605,0 -1.19229,0.53179028 -1.19229,1.19229284 V 16.704544 c 0,0.660502 0.53179,1.192292 1.19229,1.192292 h 11.13823 c 0.6605,0 1.19211,-0.53179 1.19211,-1.192292 V 4.3305998 h -2.84038 c -0.6605,0 -1.19229,-0.5316135 -1.19229,-1.192116 V 0.33087896 Z"
     id="rect4897-6-0-2-9-7" />
  <path
     style="fill:#ffffff;stroke:#000000;stroke-width:0.35277778;stroke-linecap:round;stroke-linejoin:round;stroke-miterlimit:4;stroke-dasharray:none;stroke-opacity:1"
     d="M 60.07867,0.33087814 64.11134,4.3305994"
     id="path4936-6-0-3-36" />
  <path
     style="fill:none;fill-opacity:1;stroke:#000000;stroke-width:0.35268959;stroke-linecap:round;stroke-linejoin:round;stroke-miterlimit:4;stroke-dasharray:none;stroke-opacity:1"
     d="m 42.1489,53.0522 c -0.6605,0 -1.19229,0.53179 -1.19229,1.192293 v 15.181372 c 0,0.660502 0.53179,1.192292 1.19229,1.192292 h 11.13823 c 0.6605,0 1.19211,-0.53179 1.19211,-1.192292 V 57.051921 h -2.84038 c -0.6605,0 -1.19229,-0.531614 -1.19229,-1.192116 V 53.0522 Z"
     id="rect4897-6-9-0-8-0-9-2-7-5-0" />
  <path
     style="fill:#ffffff;fill-opacity:1;stroke:#000000;stroke-width:0.35277778;stroke-linecap:round;stroke-linejoin:round;stroke-miterlimit:4;stroke-dasharray:none;stroke-opacity:1"
     d="m 50.44657,53.052199 4.03267,3.999721"
     id="path4936-3-6-1-6-2-9-4-9-8" />
  <path
     id="rect1075"
     d="m 35.91944,1.5202209 a 1.6446362,1.6446362 0 0 0 -1.64435,1.644859 1.6446362,1.6446362 0 0 0 0.43822,1.1156949 h -3.05873 c -0.40719,0 -0.73536,0.3276547 -0.73536,0.7348379 v 3.0592448 a 1.6446362,1.6446362 0 0 0 -1.11517,-0.438732 1.6446362,1.6446362 0 0 0 -1.64486,1.644343 1.6446362,1.6446362 0 0 0 1.64486,1.6448615 1.6446362,1.6446362 0 0 0 1.11517,-0.438216 v 3.05821 c 0,0.407186 0.32817,0.735357 0.73536,0.735357 h 3.05821 a 1.6446362,1.6446362 0 0 1 -0.4377,-1.115695 1.6446362,1.6446362 0 0 1 1.64435,-1.644343 1.6446362,1.6446362 0 0 1 1.64485,1.644343 1.6446362,1.6446362 0 0 1 -0.43976,1.115695 h 3.05976 c 0.40718,0 0.73536,-0.328171 0.73536,-0.735357 v -3.058726 a 1.6446362,1.6446362 0 0 1 -1.1157,0.438732 1.6446362,1.6446362 0 0 1 -1.64434,-1.6448615 1.6446362,1.6446362 0 0 1 1.64434,-1.644343 1.6446362,1.6446362 0 0 1 1.1157,0.4392506 V 5.0156127 c 0,-0.4071832 -0.32818,-0.7348379 -0.73536,-0.7348379 h -3.05976 a 1.6446362,1.6446362 0 0 0 0.43976,-1.1156949 1.6446362,1.6446362 0 0 0 -1.64485,-1.644859 z"
     style="opacity:1;fill:none;fill-opacity:1;fill-rule:nonzero;stroke:#000000;stroke-width:0.35277778;stroke-linecap:round;stroke-linejoin:round;stroke-miterlimit:4;stroke-dasharray:none;stroke-dashoffset:0;stroke-opacity:1" />
</svg>
