<?xml version="1.0" encoding="UTF-8" standalone="no"?>
<svg
   xmlns:dc="http://purl.org/dc/elements/1.1/"
   xmlns:cc="http://creativecommons.org/ns#"
   xmlns:rdf="http://www.w3.org/1999/02/22-rdf-syntax-ns#"
   xmlns:svg="http://www.w3.org/2000/svg"
   xmlns="http://www.w3.org/2000/svg"
   id="svg10224"
   version="1.1"
   viewBox="0 0 64.604782 71.10746"
   height="71.10746mm"
   width="64.604782mm">
  <defs
     id="defs10218" />
  <metadata
     id="metadata10221">
    <rdf:RDF>
      <cc:Work
         rdf:about="">
        <dc:format>image/svg+xml</dc:format>
        <dc:type
           rdf:resource="http://purl.org/dc/dcmitype/StillImage" />
        <dc:title></dc:title>
      </cc:Work>
    </rdf:RDF>
  </metadata>
  <g
     transform="translate(293.10596,-54.315319)"
     id="layer1">
    <g
       id="live-migration"
       transform="translate(-405.80057,54.379705)">
      <g
         style="fill:#ff00ff;fill-opacity:1"
         transform="matrix(0.73037238,0,0,0.73037238,64.38805,-37.936958)"
         id="g4946-3-4-6-6">
        <path
           id="rect4897-5-7-7-1"
           d="m 69.988688,52.206562 h 20.095536 c 1.936939,0 3.496279,1.559341 3.496279,3.49628 v 44.519908 c 0,1.93694 -1.55934,3.49628 -3.496279,3.49628 H 69.988688 c -1.936939,0 -3.496279,-1.55934 -3.496279,-3.49628 V 55.702842 c 0,-1.936939 1.55934,-3.49628 3.496279,-3.49628 z"
           style="fill:#ff00ff;fill-opacity:1;stroke:#000000;stroke-width:0.70555556;stroke-miterlimit:4;stroke-dasharray:none;stroke-opacity:1" />
        <path
           id="path4899-6-8-3-87"
           d="m 81.170389,98.184525 a 1.1339285,1.1339285 0 0 1 -1.133928,1.133928 1.1339285,1.1339285 0 0 1 -1.133929,-1.133928 1.1339285,1.1339285 0 0 1 1.133929,-1.133929 1.1339285,1.1339285 0 0 1 1.133928,1.133929 z"
           style="fill:#ffffff;fill-opacity:1;stroke:#000000;stroke-width:0.70555556;stroke-miterlimit:4;stroke-dasharray:none;stroke-opacity:1" />
        <path
           style="fill:#ff00ff;fill-opacity:1;stroke:#000000;stroke-width:0.70555556;stroke-linecap:butt;stroke-linejoin:miter;stroke-miterlimit:4;stroke-dasharray:none;stroke-opacity:1"
           d="M 66.492409,92.136903 H 93.580503"
           id="path4901-2-4-6-9" />
        <path
           style="fill:#ff00ff;fill-opacity:1;stroke:#000000;stroke-width:0.70555556;stroke-linecap:butt;stroke-linejoin:miter;stroke-miterlimit:4;stroke-dasharray:none;stroke-opacity:1"
           d="M 66.492409,60.197915 H 93.580503"
           id="path4903-9-5-5-20" />
      </g>
      <g
         style="fill:#ff00ff;fill-opacity:1"
         transform="matrix(0.34100299,0,0,0.34100299,152.29521,8.2989173)"
         id="g4940-0-1-4-92">
        <path
           style="fill:#ff00ff;fill-opacity:1;stroke:#000000;stroke-width:9.04498863;stroke-linecap:round;stroke-linejoin:round;stroke-miterlimit:4;stroke-dasharray:none;stroke-opacity:1"
           d="m 29.167969,204.10156 c -7.320714,0 -13.214844,5.89413 -13.214844,13.21485 v 168.26367 c 0,7.32071 5.89413,13.21484 13.214844,13.21484 H 152.61914 c 7.32071,0 13.21289,-5.89413 13.21289,-13.21484 V 248.43271 h -31.48154 c -7.32071,0 -13.21484,-5.89217 -13.21485,-13.21289 v -31.11826 z"
           id="rect4897-6-9-0-8-2"
           transform="scale(0.26458333)" />
        <path
           style="fill:#ff00ff;fill-opacity:1;stroke:#000000;stroke-width:2.39315319;stroke-linecap:round;stroke-linejoin:round;stroke-miterlimit:4;stroke-dasharray:none;stroke-opacity:1"
           d="M 32.05047,54.00187 43.876391,65.731155"
           id="path4936-3-6-1-8" />
      </g>
      <g
         transform="matrix(0.34100299,0,0,0.34100299,161.92524,-18.067041)"
         id="g4940-6-3-2-9">
        <path
           style="fill:#ffffff;stroke:#000000;stroke-width:9.04498863;stroke-linecap:round;stroke-linejoin:round;stroke-miterlimit:4;stroke-dasharray:none;stroke-opacity:1"
           d="m 29.167969,204.10156 c -7.320714,0 -13.214844,5.89413 -13.214844,13.21485 v 168.26367 c 0,7.32071 5.89413,13.21484 13.214844,13.21484 H 152.61914 c 7.32071,0 13.21289,-5.89413 13.21289,-13.21484 V 248.43271 h -31.48154 c -7.32071,0 -13.21484,-5.89217 -13.21485,-13.21289 v -31.11826 z"
           id="rect4897-6-0-2-9-7"
           transform="scale(0.26458333)" />
        <path
           style="fill:none;stroke:#000000;stroke-width:2.39315319;stroke-linecap:round;stroke-linejoin:round;stroke-miterlimit:4;stroke-dasharray:none;stroke-opacity:1"
           d="M 32.05047,54.00187 43.876391,65.731155"
           id="path4936-6-0-3-36" />
      </g>
      <g
         id="g6122-5-1"
         transform="matrix(0.14208947,0,0,0.14208947,140.56941,-134.57543)">
        <path
           id="path6120-9-2"
           overflow="visible"
           display="inline"
           visibility="visible"
           marker="none"
           d="m 58.999984,956.36215 c -8.2487,0 -15,6.75127 -15,15 0,1.04318 0.1998,2.01683 0.4062,3 h -19.4062 a 3.0003,3.0003 0 0 0 -3,3 v 19.40625 c -0.9761,-0.20332 -1.9649,-0.40625 -3,-0.40625 -8.2487,0 -14.9999997,6.75125 -14.9999997,15.00005 0,8.2487 6.7512997,15 14.9999997,15 1.0355,0 2.0236,-0.234 3,-0.4375 v 19.4375 a 3.0003,3.0003 0 0 0 3,3 h 25.0625 a 3.0003,3.0003 0 0 0 2.25,-5 c -1.4316,-1.5984 -2.3125,-3.6801 -2.3125,-6 0,-5.0061 3.9939,-9 9,-9 5.0061,0 9,3.9939 9,9 0,2.3199 -0.8809,4.4016 -2.3125,6 a 3.0003,3.0003 0 0 0 2.25,5 h 25.062502 a 3.0003,3.0003 0 0 0 3,-3 v -25.0625 a 3.0003,3.0003 0 0 0 -5.000002,-2.25 c -1.5984,1.4315 -3.6801,2.3125 -6,2.3125 -5.0061,0 -9,-3.9939 -9,-9 0,-5.0061 3.9939,-9 9,-9 2.3199,0 4.4016,0.8497 6,2.2812 a 3.0003,3.0003 0 0 0 5.000002,-2.2187 v -25.06255 a 3.0003,3.0003 0 0 0 -3,-3 H 73.593784 c 0.2064,-0.98317 0.4062,-1.95682 0.4062,-3 0,-8.24873 -6.7513,-15 -15,-15 z m 0,6 c 5.0061,0 9,3.99393 9,9 0,1.64122 -0.4423,3.12947 -1.2188,4.46875 a 3.0003,3.0003 0 0 0 2.5938,4.53125 h 20.625 v 16.875 c -1.5718,-0.55967 -3.2447,-0.875 -5,-0.875 -8.2487,0 -15,6.75125 -15,15.00005 0,8.2487 6.7513,15 15,15 1.7553,0 3.4282,-0.3466 5,-0.9063 v 16.9063 h -16.9062 c 0.561,-1.5735 0.9062,-3.2424 0.9062,-5 0,-8.2487 -6.7513,-15 -15,-15 -8.2487,0 -15,6.7513 -15,15 0,1.7576 0.3452,3.4265 0.9062,5 h -16.9062 v -20.625 a 3.0003,3.0003 0 0 0 -4.5,-2.5938 c -1.3393,0.7765 -2.8588,1.2188 -4.5,1.2188 -5.0061,0 -8.9999997,-3.9939 -8.9999997,-9 0,-5.0061 3.9938997,-9 8.9999997,-9 1.6412,0 3.1607,0.4423 4.5,1.2187 a 3.0003,3.0003 0 0 0 4.5,-2.5937 v -20.62505 h 20.625 a 3.0003,3.0003 0 0 0 2.5938,-4.53125 c -0.7765,-1.33928 -1.2188,-2.82753 -1.2188,-4.46875 0,-5.00607 3.9939,-9 9,-9 z"
           style="color:#000000;text-indent:0;text-transform:none;direction:ltr;baseline-shift:baseline;display:inline;overflow:visible;visibility:visible;fill:#000000;fill-opacity:1;stroke:none;enable-background:accumulate" />
      </g>
      <g
         transform="translate(0.25559093,-211.57501)"
         id="g8785-9-9-3">
        <path
           id="rect4897-6-9-0-8-0-4-2-6-2-9-5"
           d="m 163.18541,268.13752 -10e-4,0.003 -9.37566,13.70097 c 0.21677,0.22646 0.52074,0.36897 0.86041,0.36897 h 11.13834 c 0.6605,0 1.19218,-0.53219 1.19218,-1.19269 v -12.37393 h -2.84066 c -0.40405,0 -0.75814,-0.20021 -0.97358,-0.50591 z"
           style="fill:#ff00ff;fill-opacity:1;stroke:none;stroke-width:0.8160724;stroke-linecap:round;stroke-linejoin:round;stroke-miterlimit:4;stroke-dasharray:none;stroke-opacity:1" />
        <g
           style="fill:none;fill-opacity:1"
           id="g4940-0-1-4-1-8-8-5-4-7"
           transform="matrix(0.34100299,0,0,0.34100299,152.03755,246.22929)">
          <path
             transform="scale(0.26458333)"
             id="rect4897-6-9-0-8-0-9-2-7-5-0"
             d="m 29.167969,204.10156 c -7.320714,0 -13.214844,5.89413 -13.214844,13.21485 v 168.26367 c 0,7.32071 5.89413,13.21484 13.214844,13.21484 H 152.61914 c 7.32071,0 13.21289,-5.89413 13.21289,-13.21484 V 248.43271 h -31.48154 c -7.32071,0 -13.21484,-5.89217 -13.21485,-13.21289 v -31.11826 z"
             style="fill:none;fill-opacity:1;stroke:#000000;stroke-width:9.04498863;stroke-linecap:round;stroke-linejoin:round;stroke-miterlimit:4;stroke-dasharray:none;stroke-opacity:1" />
          <path
             id="path4936-3-6-1-6-2-9-4-9-8"
             d="M 32.05047,54.00187 43.876391,65.731155"
             style="fill:none;fill-opacity:1;stroke:#000000;stroke-width:2.39315319;stroke-linecap:round;stroke-linejoin:round;stroke-miterlimit:4;stroke-dasharray:none;stroke-opacity:1" />
        </g>
      </g>
    </g>
  </g>
</svg>
