<?xml version="1.0" encoding="UTF-8" standalone="no"?>
<svg
   xmlns:dc="http://purl.org/dc/elements/1.1/"
   xmlns:cc="http://creativecommons.org/ns#"
   xmlns:rdf="http://www.w3.org/1999/02/22-rdf-syntax-ns#"
   xmlns:svg="http://www.w3.org/2000/svg"
   xmlns="http://www.w3.org/2000/svg"
   xmlns:sodipodi="http://sodipodi.sourceforge.net/DTD/sodipodi-0.dtd"
   xmlns:inkscape="http://www.inkscape.org/namespaces/inkscape"
   id="svg10945"
   version="1.1"
   viewBox="0 0 125.3517 71.105415"
   height="71.105415mm"
   width="125.3517mm"
   sodipodi:docname="per-version-dbs.svg"
   inkscape:version="0.92.2 (5c3e80d, 2017-08-06)">
  <sodipodi:namedview
     pagecolor="#ffffff"
     bordercolor="#666666"
     borderopacity="1"
     objecttolerance="10"
     gridtolerance="10"
     guidetolerance="10"
     inkscape:pageopacity="0"
     inkscape:pageshadow="2"
     inkscape:window-width="812"
     inkscape:window-height="480"
     id="namedview3607"
     showgrid="false"
     inkscape:zoom="0.72186895"
     inkscape:cx="236.8851"
     inkscape:cy="134.37244"
     inkscape:window-x="0"
     inkscape:window-y="27"
     inkscape:window-maximized="0"
     inkscape:current-layer="svg10945" />
  <defs
     id="defs10939" />
  <metadata
     id="metadata10942">
    <rdf:RDF>
      <cc:Work
         rdf:about="">
        <dc:format>image/svg+xml</dc:format>
        <dc:type
           rdf:resource="http://purl.org/dc/dcmitype/StillImage" />
        <dc:title />
      </cc:Work>
    </rdf:RDF>
  </metadata>
  <g
     transform="translate(-112.6946,-105.64895)"
     id="g1695">
    <path
       inkscape:connector-curvature="0"
       id="rect4897-5-7-7-19"
       d="m 115.50585,105.9818 h 14.67722 c 1.41469,0 2.55359,1.1389 2.55359,2.55359 v 32.51611 c 0,1.41468 -1.1389,2.55358 -2.55359,2.55358 h -14.67722 c -1.41469,0 -2.55359,-1.1389 -2.55359,-2.55358 v -32.51611 c 0,-1.41469 1.1389,-2.55359 2.55359,-2.55359 z"
       style="fill:#ffffff;stroke:#000000;stroke-width:0.35277778;stroke-miterlimit:4;stroke-dasharray:none;stroke-opacity:1" />
    <path
       inkscape:connector-curvature="0"
       id="path4899-6-8-3-4"
       d="m 123.67266,139.56283 a 0.82819006,0.82819006 0 0 1 -0.82819,0.82819 0.82819006,0.82819006 0 0 1 -0.82819,-0.82819 0.82819006,0.82819006 0 0 1 0.82819,-0.82819 0.82819006,0.82819006 0 0 1 0.82819,0.82819 z"
       style="fill:#ffffff;stroke:#000000;stroke-width:0.35277778;stroke-miterlimit:4;stroke-dasharray:none;stroke-opacity:1" />
    <path
       style="fill:none;stroke:#000000;stroke-width:0.35277778;stroke-linecap:butt;stroke-linejoin:miter;stroke-miterlimit:4;stroke-dasharray:none;stroke-opacity:1"
       d="m 112.95226,135.14582 h 19.7844"
       id="path4901-2-4-6-7"
       inkscape:connector-curvature="0"
       sodipodi:nodetypes="cc" />
    <path
       style="fill:none;stroke:#000000;stroke-width:0.35277778;stroke-linecap:butt;stroke-linejoin:miter;stroke-miterlimit:4;stroke-dasharray:none;stroke-opacity:1"
       d="m 112.95226,111.81846 h 19.7844"
       id="path4903-9-5-5-84"
       inkscape:connector-curvature="0"
       sodipodi:nodetypes="cc" />
    <path
       sodipodi:nodetypes="sssssscsccs"
       inkscape:connector-curvature="0"
       style="fill:#ffffff;stroke:#000000;stroke-width:0.35277778;stroke-linecap:round;stroke-linejoin:round;stroke-miterlimit:4;stroke-dasharray:none;stroke-opacity:1"
       d="m 149.63517,132.50224 c -0.6605,0 -1.19229,0.53179 -1.19229,1.19229 v 15.18138 c 0,0.6605 0.53179,1.19229 1.19229,1.19229 h 11.13823 c 0.6605,0 1.19211,-0.53179 1.19211,-1.19229 v -12.37395 h -2.84038 c -0.6605,0 -1.19229,-0.53161 -1.19229,-1.19212 v -2.8076 z"
       id="rect4897-6-9-0-8-0" />
    <path
       sodipodi:nodetypes="cc"
       style="fill:none;stroke:#000000;stroke-width:0.35277778;stroke-linecap:round;stroke-linejoin:round;stroke-miterlimit:4;stroke-dasharray:none;stroke-opacity:1"
       d="m 157.93284,132.50224 4.03267,3.99972"
       id="path4936-3-6-1-6"
       inkscape:connector-curvature="0" />
    <path
       sodipodi:nodetypes="sssssscsccs"
       inkscape:connector-curvature="0"
       style="fill:#ffffff;stroke:#000000;stroke-width:0.35277778;stroke-linecap:round;stroke-linejoin:round;stroke-miterlimit:4;stroke-dasharray:none;stroke-opacity:1"
       d="m 149.63517,106.13628 c -0.6605,0 -1.19229,0.5318 -1.19229,1.1923 v 15.18137 c 0,0.6605 0.53179,1.19229 1.19229,1.19229 h 11.13823 c 0.6605,0 1.19211,-0.53179 1.19211,-1.19229 v -12.37394 h -2.84038 c -0.6605,0 -1.19229,-0.53162 -1.19229,-1.19212 v -2.80761 z"
       id="rect4897-6-0-2-9-06" />
    <path
       sodipodi:nodetypes="cc"
       style="fill:none;stroke:#000000;stroke-width:0.35277778;stroke-linecap:round;stroke-linejoin:round;stroke-miterlimit:4;stroke-dasharray:none;stroke-opacity:1"
       d="m 157.93284,106.13628 4.03267,3.99973"
       id="path4936-6-0-3-1"
       inkscape:connector-curvature="0" />
    <path
       inkscape:connector-curvature="0"
       id="rect4897-5-7-7-19-4"
       d="m 220.55783,105.9818 h 14.67723 c 1.41469,0 2.55358,1.1389 2.55358,2.55359 v 32.51611 c 0,1.41469 -1.13889,2.55359 -2.55358,2.55359 h -14.67723 c -1.41468,0 -2.55358,-1.1389 -2.55358,-2.55359 v -32.51611 c 0,-1.41469 1.1389,-2.55359 2.55358,-2.55359 z"
       style="fill:#e20074;fill-opacity:1;stroke:#000000;stroke-width:0.35277778;stroke-miterlimit:4;stroke-dasharray:none;stroke-opacity:1" />
    <path
       inkscape:connector-curvature="0"
       id="path4899-6-8-3-4-7"
       d="m 228.72464,139.56284 a 0.82819006,0.82819006 0 0 1 -0.82819,0.82819 0.82819006,0.82819006 0 0 1 -0.82819,-0.82819 0.82819006,0.82819006 0 0 1 0.82819,-0.82819 0.82819006,0.82819006 0 0 1 0.82819,0.82819 z"
       style="fill:#ffffff;fill-opacity:1;stroke:#000000;stroke-width:0.35277778;stroke-miterlimit:4;stroke-dasharray:none;stroke-opacity:1" />
    <path
       style="fill:#e20074;fill-opacity:1;stroke:#000000;stroke-width:0.35277778;stroke-linecap:butt;stroke-linejoin:miter;stroke-miterlimit:4;stroke-dasharray:none;stroke-opacity:1"
       d="m 218.00425,135.14582 h 19.78439"
       id="path4901-2-4-6-7-6"
       inkscape:connector-curvature="0"
       sodipodi:nodetypes="cc" />
    <path
       style="fill:#e20074;fill-opacity:1;stroke:#000000;stroke-width:0.35277778;stroke-linecap:butt;stroke-linejoin:miter;stroke-miterlimit:4;stroke-dasharray:none;stroke-opacity:1"
       d="m 218.00425,111.81847 h 19.78439"
       id="path4903-9-5-5-84-5"
       inkscape:connector-curvature="0"
       sodipodi:nodetypes="cc" />
    <path
       sodipodi:nodetypes="sssssscsccs"
       inkscape:connector-curvature="0"
       style="fill:#e20074;fill-opacity:1;stroke:#000000;stroke-width:0.35277778;stroke-linecap:round;stroke-linejoin:round;stroke-miterlimit:4;stroke-dasharray:none;stroke-opacity:1"
       d="m 191.05745,132.50225 c -0.6605,0 -1.19229,0.53179 -1.19229,1.19229 v 15.18138 c 0,0.6605 0.53179,1.19229 1.19229,1.19229 h 11.13823 c 0.6605,0 1.19211,-0.53179 1.19211,-1.19229 v -12.37395 h -2.84038 c -0.6605,0 -1.19229,-0.53161 -1.19229,-1.19212 v -2.8076 z"
       id="rect4897-6-9-0-8-0-4" />
    <path
       sodipodi:nodetypes="cc"
       style="fill:#e20074;fill-opacity:1;stroke:#000000;stroke-width:0.35277778;stroke-linecap:round;stroke-linejoin:round;stroke-miterlimit:4;stroke-dasharray:none;stroke-opacity:1"
       d="m 199.35512,132.50225 4.03267,3.99972"
       id="path4936-3-6-1-6-5"
       inkscape:connector-curvature="0" />
    <path
       sodipodi:nodetypes="sssssscsccs"
       inkscape:connector-curvature="0"
       style="fill:#e20074;fill-opacity:1;stroke:#000000;stroke-width:0.35277778;stroke-linecap:round;stroke-linejoin:round;stroke-miterlimit:4;stroke-dasharray:none;stroke-opacity:1"
       d="m 191.05745,106.13629 c -0.6605,0 -1.19229,0.53179 -1.19229,1.19229 v 15.18137 c 0,0.6605 0.53179,1.1923 1.19229,1.1923 h 11.13823 c 0.6605,0 1.19211,-0.5318 1.19211,-1.1923 v -12.37394 h -2.84038 c -0.6605,0 -1.19229,-0.53161 -1.19229,-1.19212 v -2.8076 z"
       id="rect4897-6-0-2-9-06-5" />
    <path
       sodipodi:nodetypes="cc"
       style="fill:#e20074;fill-opacity:1;stroke:#000000;stroke-width:0.35277778;stroke-linecap:round;stroke-linejoin:round;stroke-miterlimit:4;stroke-dasharray:none;stroke-opacity:1"
       d="m 199.35512,106.13629 4.03267,3.99972"
       id="path4936-6-0-3-1-4"
       inkscape:connector-curvature="0" />
    <path
       style="stroke-width:0.35277778;stroke-miterlimit:4;stroke-dasharray:none"
       id="path5754-4"
       d="m 172.84238,125.77719 a 0.326245,0.326245 0 1 0 0,-0.65249 2.0187932,2.0187932 0 1 0 2.01879,2.02141 0.32624407,0.32624407 0 1 0 -0.65248,0 1.3689167,1.3689167 0 1 1 -1.36631,-1.36892 z"
       inkscape:connector-curvature="0" />
    <path
       style="stroke-width:0.35277778;stroke-miterlimit:4;stroke-dasharray:none"
       id="path5756-43"
       d="m 168.67169,128.27099 0.48414,0.0848 a 3.8548902,3.8548902 0 0 0 0.22446,0.54156 l -0.28188,0.40193 a 0.84692746,0.84692746 0 0 0 0.0953,1.08705 l 0.40846,0.40845 a 0.84692746,0.84692746 0 0 0 1.08704,0.0953 l 0.40194,-0.28188 a 3.866635,3.866635 0 0 0 0.54156,0.22446 l 0.0848,0.48414 a 0.84692746,0.84692746 0 0 0 0.83649,0.70469 h 0.5781 a 0.84692746,0.84692746 0 0 0 0.83779,-0.70469 l 0.0848,-0.48414 a 3.8601101,3.8601101 0 0 0 0.54156,-0.22446 l 0.40193,0.28188 a 0.84692746,0.84692746 0 0 0 1.08705,-0.0953 l 0.40846,-0.40845 a 0.84692746,0.84692746 0 0 0 0.0953,-1.08705 l -0.28188,-0.40193 a 3.8627201,3.8627201 0 0 0 0.22446,-0.54156 l 0.48414,-0.0848 a 0.32493828,0.32493828 0 1 0 -0.11222,-0.63943 l -0.6812,0.12006 a 0.32493828,0.32493828 0 0 0 -0.26099,0.23489 3.2128435,3.2128435 0 0 1 -0.31972,0.77254 0.32493828,0.32493828 0 0 0 0.0157,0.34843 l 0.40063,0.56506 a 0.19966087,0.19966087 0 0 1 -0.0222,0.26099 l -0.40845,0.40846 a 0.19966087,0.19966087 0 0 1 -0.261,0.0222 l -0.56636,-0.39149 a 0.32493828,0.32493828 0 0 0 -0.34842,-0.0157 3.2089286,3.2089286 0 0 1 -0.76994,0.31972 0.32493828,0.32493828 0 0 0 -0.23489,0.26099 l -0.12006,0.6812 a 0.19966087,0.19966087 0 0 1 -0.19575,0.15007 h -0.57679 a 0.19966087,0.19966087 0 0 1 -0.19706,-0.16443 l -0.12005,-0.68119 a 0.32493828,0.32493828 0 0 0 -0.2349,-0.261 3.2154534,3.2154534 0 0 1 -0.77254,-0.3171 0.32493828,0.32493828 0 0 0 -0.34843,0.0157 l -0.56636,0.39149 a 0.19966087,0.19966087 0 0 1 -0.26099,-0.0222 l -0.40194,-0.39671 a 0.19966087,0.19966087 0 0 1 -0.0222,-0.26099 l 0.39149,-0.56636 a 0.32493828,0.32493828 0 0 0 0.0222,-0.34713 3.2050137,3.2050137 0 0 1 -0.31972,-0.76993 0.32493828,0.32493828 0 0 0 -0.26099,-0.23489 l -0.6812,-0.12006 a 0.19966087,0.19966087 0 0 1 -0.16182,-0.19966 v -0.5768 a 0.19966087,0.19966087 0 0 1 0.16443,-0.19705 l 0.6812,-0.12006 a 0.32493828,0.32493828 0 0 0 0.26099,-0.23489 3.2063186,3.2063186 0 0 1 0.31972,-0.77124 0.32493828,0.32493828 0 0 0 -0.0157,-0.34843 l -0.39149,-0.56636 a 0.19966087,0.19966087 0 0 1 0.0222,-0.26099 l 0.39411,-0.40324 a 0.19966087,0.19966087 0 0 1 0.26099,-0.0248 l 0.56636,0.39149 a 0.32493828,0.32493828 0 0 0 0.34843,0.0157 3.2102336,3.2102336 0 0 1 0.77124,-0.31972 0.32493828,0.32493828 0 0 0 0.23489,-0.261 l 0.12006,-0.68119 a 0.32493828,0.32493828 0 0 0 -0.63944,-0.11223 l -0.0848,0.48415 a 3.8614151,3.8614151 0 0 0 -0.54156,0.22445 l -0.40194,-0.28187 a 0.84692746,0.84692746 0 0 0 -1.08704,0.0953 l -0.40846,0.40846 a 0.84692746,0.84692746 0 0 0 -0.094,1.08704 l 0.28188,0.40193 a 3.8575002,3.8575002 0 0 0 -0.22445,0.54156 l -0.48545,0.094 a 0.84692746,0.84692746 0 0 0 -0.70469,0.8391 v 0.5781 a 0.84692746,0.84692746 0 0 0 0.70469,0.83519 z"
       inkscape:connector-curvature="0" />
    <path
       style="stroke-width:0.35277778;stroke-miterlimit:4;stroke-dasharray:none"
       id="path5758-07"
       d="m 180.27811,122.90234 -0.36539,-0.16965 A 3.0275373,3.0275373 0 0 0 179.6961,121.921 l 0.23098,-0.33016 a 0.81952302,0.81952302 0 0 0 -0.0914,-1.05051 l -0.39149,-0.39149 a 0.81952302,0.81952302 0 0 0 -1.0505,-0.0914 l -0.32625,0.2362 a 3.0275373,3.0275373 0 0 0 -0.81169,-0.21662 l -0.16965,-0.36539 a 0.81952302,0.81952302 0 0 0 -0.95654,-0.44631 l -0.52199,0.14094 a 0.81952302,0.81952302 0 0 0 -0.60943,0.87042 l 0.0352,0.39149 a 3.0888711,3.0888711 0 0 0 -0.59377,0.59376 l -0.40062,-0.0352 a 0.81952302,0.81952302 0 0 0 -0.86389,0.6042 l -0.14094,0.52199 a 0.81952302,0.81952302 0 0 0 0.4463,0.95655 l 0.36539,0.16964 a 3.0288423,3.0288423 0 0 0 0.21663,0.8117 l -0.23098,0.33015 a 0.81952302,0.81952302 0 0 0 0.0914,1.05051 l 0.39149,0.39149 a 0.81952302,0.81952302 0 0 0 1.0505,0.0914 l 0.33016,-0.23098 a 3.0288423,3.0288423 0 0 0 0.80386,0.22576 l 0.16965,0.36539 a 0.81952302,0.81952302 0 0 0 0.95524,0.44239 l 0.52199,-0.14094 a 0.81952302,0.81952302 0 0 0 0.60551,-0.86389 l -0.0352,-0.40063 a 3.094091,3.094091 0 0 0 0.31711,-0.27665 v 0 a 3.0875661,3.0875661 0 0 0 0.2871,-0.31972 l 0.40062,0.0352 a 0.81952302,0.81952302 0 0 0 0.86389,-0.6042 l 0.14094,-0.52199 a 0.81952302,0.81952302 0 0 0 -0.44761,-0.96176 z m -0.18139,0.78298 -0.14093,0.52199 a 0.17095146,0.17095146 0 0 1 -0.18009,0.1305 l -0.58593,-0.0457 a 0.32493828,0.32493828 0 0 0 -0.29884,0.14486 2.4337747,2.4337747 0 0 1 -0.68511,0.68511 0.32493828,0.32493828 0 0 0 -0.14485,0.29884 l 0.0522,0.58593 a 0.17095146,0.17095146 0 0 1 -0.1305,0.18008 l -0.52199,0.14094 a 0.17095146,0.17095146 0 0 1 -0.19966,-0.0926 l -0.24925,-0.53504 a 0.32493828,0.32493828 0 0 0 -0.27535,-0.18661 2.3920155,2.3920155 0 0 1 -0.93958,-0.24925 0.32493828,0.32493828 0 0 0 -0.33146,0.0248 l -0.47893,0.33799 a 0.17095146,0.17095146 0 0 1 -0.21923,-0.0196 l -0.3915,-0.39149 a 0.17095146,0.17095146 0 0 1 -0.0143,-0.21401 l 0.33799,-0.48284 a 0.32493828,0.32493828 0 0 0 0.0248,-0.32755 2.3920155,2.3920155 0 0 1 -0.25055,-0.93436 0.32493828,0.32493828 0 0 0 -0.18662,-0.27535 l -0.53503,-0.24925 a 0.17095146,0.17095146 0 0 1 -0.0927,-0.19966 l 0.14094,-0.52199 a 0.17095146,0.17095146 0 0 1 0.18009,-0.1305 l 0.58593,0.0522 a 0.32493828,0.32493828 0 0 0 0.29884,-0.14485 2.4337747,2.4337747 0 0 1 0.68511,-0.68511 0.32493828,0.32493828 0 0 0 0.14615,-0.30406 l -0.0522,-0.58593 a 0.17095146,0.17095146 0 0 1 0.13049,-0.18009 l 0.522,-0.14094 a 0.17095146,0.17095146 0 0 1 0.19966,0.0927 l 0.24924,0.53504 a 0.32493828,0.32493828 0 0 0 0.27535,0.1866 2.3920155,2.3920155 0 0 1 0.93436,0.25056 0.32493828,0.32493828 0 0 0 0.33277,-0.0274 l 0.48284,-0.33799 a 0.17095146,0.17095146 0 0 1 0.21924,0.0196 l 0.39149,0.39149 a 0.17095146,0.17095146 0 0 1 0.0196,0.21924 l -0.3419,0.47892 a 0.32493828,0.32493828 0 0 0 -0.0248,0.33146 2.3920155,2.3920155 0 0 1 0.25055,0.93436 0.32493828,0.32493828 0 0 0 0.18662,0.27535 l 0.53504,0.24925 a 0.17095146,0.17095146 0 0 1 0.0966,0.19966 z"
       inkscape:connector-curvature="0" />
    <path
       style="stroke-width:0.35277778;stroke-miterlimit:4;stroke-dasharray:none"
       id="path5760-8"
       d="m 176.87866,121.7122 a 1.3976261,1.3976261 0 1 0 1.39763,1.39763 1.400236,1.400236 0 0 0 -1.39763,-1.39763 z m 0,2.14668 a 0.74905448,0.74905448 0 1 1 0.74514,-0.74905 0.75035949,0.75035949 0 0 1 -0.74514,0.74905 z"
       inkscape:connector-curvature="0" />
    <path
       inkscape:connector-curvature="0"
       id="rect4897-6-9-0-8-0-4-2-6-2-9-5-9"
       d="m 158.15139,162.34898 -0.001,0.003 -9.37566,13.70097 c 0.21677,0.22646 0.52074,0.36897 0.86041,0.36897 h 11.13834 c 0.6605,0 1.19218,-0.53219 1.19218,-1.19269 V 162.8553 H 159.125 c -0.40405,0 -0.75814,-0.20021 -0.97358,-0.50591 z"
       style="fill:#e20074;fill-opacity:1;stroke:none;stroke-width:0.35277778;stroke-linecap:round;stroke-linejoin:round;stroke-miterlimit:4;stroke-dasharray:none;stroke-opacity:1" />
    <path
       sodipodi:nodetypes="sssssscsccs"
       inkscape:connector-curvature="0"
       style="fill:none;fill-opacity:1;stroke:#000000;stroke-width:0.35277778;stroke-linecap:round;stroke-linejoin:round;stroke-miterlimit:4;stroke-dasharray:none;stroke-opacity:1"
       d="m 149.63517,158.85555 c -0.6605,0 -1.19229,0.53179 -1.19229,1.19229 v 15.18138 c 0,0.6605 0.53179,1.19229 1.19229,1.19229 h 11.13823 c 0.6605,0 1.19211,-0.53179 1.19211,-1.19229 v -12.37395 h -2.84038 c -0.6605,0 -1.19229,-0.53161 -1.19229,-1.19212 v -2.8076 z"
       id="rect4897-6-9-0-8-0-9-2-7-5-0-7" />
    <path
       sodipodi:nodetypes="cc"
       style="fill:none;fill-opacity:1;stroke:#000000;stroke-width:0.35277778;stroke-linecap:round;stroke-linejoin:round;stroke-miterlimit:4;stroke-dasharray:none;stroke-opacity:1"
       d="m 157.93284,158.85555 4.03267,3.99972"
       id="path4936-3-6-1-6-2-9-4-9-8-8"
       inkscape:connector-curvature="0" />
    <path
       inkscape:connector-curvature="0"
       id="rect4897-6-9-0-8-0-4-2-6-2-9-5-9-5"
       d="m 199.57369,162.34899 -0.001,0.003 -9.37566,13.70097 c 0.21677,0.22646 0.52074,0.36897 0.86041,0.36897 h 11.13834 c 0.6605,0 1.19218,-0.53219 1.19218,-1.19269 v -12.37393 h -2.84066 c -0.40405,0 -0.75814,-0.20021 -0.97358,-0.50591 z"
       style="fill:#e20074;fill-opacity:1;stroke:none;stroke-width:0.35277778;stroke-linecap:round;stroke-linejoin:round;stroke-miterlimit:4;stroke-dasharray:none;stroke-opacity:1" />
    <path
       sodipodi:nodetypes="sssssscsccs"
       inkscape:connector-curvature="0"
       style="fill:none;fill-opacity:1;stroke:#000000;stroke-width:0.35277778;stroke-linecap:round;stroke-linejoin:round;stroke-miterlimit:4;stroke-dasharray:none;stroke-opacity:1"
       d="m 191.05747,158.85556 c -0.6605,0 -1.19229,0.53179 -1.19229,1.19229 v 15.18138 c 0,0.6605 0.53179,1.19229 1.19229,1.19229 h 11.13823 c 0.6605,0 1.19211,-0.53179 1.19211,-1.19229 v -12.37395 h -2.84038 c -0.6605,0 -1.19229,-0.53161 -1.19229,-1.19212 v -2.8076 z"
       id="rect4897-6-9-0-8-0-9-2-7-5-0-7-4" />
    <path
       sodipodi:nodetypes="cc"
       style="fill:none;fill-opacity:1;stroke:#000000;stroke-width:0.35277778;stroke-linecap:round;stroke-linejoin:round;stroke-miterlimit:4;stroke-dasharray:none;stroke-opacity:1"
       d="m 199.35514,158.85556 4.03267,3.99972"
       id="path4936-3-6-1-6-2-9-4-9-8-8-9"
       inkscape:connector-curvature="0" />
  </g>
</svg>
