<?xml version="1.0" encoding="UTF-8" standalone="no"?>
<svg
   xmlns:dc="http://purl.org/dc/elements/1.1/"
   xmlns:cc="http://creativecommons.org/ns#"
   xmlns:rdf="http://www.w3.org/1999/02/22-rdf-syntax-ns#"
   xmlns:svg="http://www.w3.org/2000/svg"
   xmlns="http://www.w3.org/2000/svg"
   id="svg10945"
   version="1.1"
   viewBox="0 0 125.3517 71.105415"
   height="71.105415mm"
   width="125.3517mm">
  <defs
     id="defs10939" />
  <metadata
     id="metadata10942">
    <rdf:RDF>
      <cc:Work
         rdf:about="">
        <dc:format>image/svg+xml</dc:format>
        <dc:type
           rdf:resource="http://purl.org/dc/dcmitype/StillImage" />
        <dc:title></dc:title>
      </cc:Work>
    </rdf:RDF>
  </metadata>
  <g
     transform="translate(81.574655,-68.679437)"
     id="layer1">
    <g
       id="per-version-dbs"
       transform="translate(-194.26926,-37.044703)">
      <g
         transform="matrix(0.73037238,0,0,0.73037238,64.388045,67.851568)"
         id="g4946-3-4-6-3">
        <path
           id="rect4897-5-7-7-19"
           d="m 69.988688,52.206562 h 20.095536 c 1.936939,0 3.496279,1.559341 3.496279,3.49628 v 44.519908 c 0,1.93694 -1.55934,3.49628 -3.496279,3.49628 H 69.988688 c -1.936939,0 -3.496279,-1.55934 -3.496279,-3.49628 V 55.702842 c 0,-1.936939 1.55934,-3.49628 3.496279,-3.49628 z"
           style="fill:#ffffff;stroke:#000000;stroke-width:0.70555556;stroke-miterlimit:4;stroke-dasharray:none;stroke-opacity:1" />
        <path
           id="path4899-6-8-3-4"
           d="m 81.170389,98.184525 a 1.1339285,1.1339285 0 0 1 -1.133928,1.133928 1.1339285,1.1339285 0 0 1 -1.133929,-1.133928 1.1339285,1.1339285 0 0 1 1.133929,-1.133929 1.1339285,1.1339285 0 0 1 1.133928,1.133929 z"
           style="fill:#ffffff;stroke:#000000;stroke-width:0.70555556;stroke-miterlimit:4;stroke-dasharray:none;stroke-opacity:1" />
        <path
           style="fill:none;stroke:#000000;stroke-width:0.70555556;stroke-linecap:butt;stroke-linejoin:miter;stroke-miterlimit:4;stroke-dasharray:none;stroke-opacity:1"
           d="M 66.492409,92.136903 H 93.580503"
           id="path4901-2-4-6-7" />
        <path
           style="fill:none;stroke:#000000;stroke-width:0.70555556;stroke-linecap:butt;stroke-linejoin:miter;stroke-miterlimit:4;stroke-dasharray:none;stroke-opacity:1"
           d="M 66.492409,60.197915 H 93.580503"
           id="path4903-9-5-5-84" />
      </g>
      <g
         transform="matrix(0.34100299,0,0,0.34100299,147.00353,114.08744)"
         id="g4940-0-1-4-1">
        <path
           style="fill:#ffffff;stroke:#000000;stroke-width:9.04498863;stroke-linecap:round;stroke-linejoin:round;stroke-miterlimit:4;stroke-dasharray:none;stroke-opacity:1"
           d="m 29.167969,204.10156 c -7.320714,0 -13.214844,5.89413 -13.214844,13.21485 v 168.26367 c 0,7.32071 5.89413,13.21484 13.214844,13.21484 H 152.61914 c 7.32071,0 13.21289,-5.89413 13.21289,-13.21484 V 248.43271 h -31.48154 c -7.32071,0 -13.21484,-5.89217 -13.21485,-13.21289 v -31.11826 z"
           id="rect4897-6-9-0-8-0"
           transform="scale(0.26458333)" />
        <path
           style="fill:none;stroke:#000000;stroke-width:2.39315319;stroke-linecap:round;stroke-linejoin:round;stroke-miterlimit:4;stroke-dasharray:none;stroke-opacity:1"
           d="M 32.05047,54.00187 43.876391,65.731155"
           id="path4936-3-6-1-6" />
      </g>
      <g
         transform="matrix(0.34100299,0,0,0.34100299,147.00353,87.721485)"
         id="g4940-6-3-2-32">
        <path
           style="fill:#ffffff;stroke:#000000;stroke-width:9.04498863;stroke-linecap:round;stroke-linejoin:round;stroke-miterlimit:4;stroke-dasharray:none;stroke-opacity:1"
           d="m 29.167969,204.10156 c -7.320714,0 -13.214844,5.89413 -13.214844,13.21485 v 168.26367 c 0,7.32071 5.89413,13.21484 13.214844,13.21484 H 152.61914 c 7.32071,0 13.21289,-5.89413 13.21289,-13.21484 V 248.43271 h -31.48154 c -7.32071,0 -13.21484,-5.89217 -13.21485,-13.21289 v -31.11826 z"
           id="rect4897-6-0-2-9-06"
           transform="scale(0.26458333)" />
        <path
           style="fill:none;stroke:#000000;stroke-width:2.39315319;stroke-linecap:round;stroke-linejoin:round;stroke-miterlimit:4;stroke-dasharray:none;stroke-opacity:1"
           d="M 32.05047,54.00187 43.876391,65.731155"
           id="path4936-6-0-3-1" />
      </g>
      <g
         style="fill:#ff00ff;fill-opacity:1"
         transform="matrix(0.73037238,0,0,0.73037238,169.44003,67.851571)"
         id="g4946-3-4-6-3-5">
        <path
           id="rect4897-5-7-7-19-4"
           d="m 69.988688,52.206562 h 20.095536 c 1.936939,0 3.496279,1.559341 3.496279,3.49628 v 44.519908 c 0,1.93694 -1.55934,3.49628 -3.496279,3.49628 H 69.988688 c -1.936939,0 -3.496279,-1.55934 -3.496279,-3.49628 V 55.702842 c 0,-1.936939 1.55934,-3.49628 3.496279,-3.49628 z"
           style="fill:#ff00ff;fill-opacity:1;stroke:#000000;stroke-width:0.70555556;stroke-miterlimit:4;stroke-dasharray:none;stroke-opacity:1" />
        <path
           id="path4899-6-8-3-4-7"
           d="m 81.170389,98.184525 a 1.1339285,1.1339285 0 0 1 -1.133928,1.133928 1.1339285,1.1339285 0 0 1 -1.133929,-1.133928 1.1339285,1.1339285 0 0 1 1.133929,-1.133929 1.1339285,1.1339285 0 0 1 1.133928,1.133929 z"
           style="fill:#ffffff;fill-opacity:1;stroke:#000000;stroke-width:0.70555556;stroke-miterlimit:4;stroke-dasharray:none;stroke-opacity:1" />
        <path
           style="fill:#ff00ff;fill-opacity:1;stroke:#000000;stroke-width:0.70555556;stroke-linecap:butt;stroke-linejoin:miter;stroke-miterlimit:4;stroke-dasharray:none;stroke-opacity:1"
           d="M 66.492409,92.136903 H 93.580503"
           id="path4901-2-4-6-7-6" />
        <path
           style="fill:#ff00ff;fill-opacity:1;stroke:#000000;stroke-width:0.70555556;stroke-linecap:butt;stroke-linejoin:miter;stroke-miterlimit:4;stroke-dasharray:none;stroke-opacity:1"
           d="M 66.492409,60.197915 H 93.580503"
           id="path4903-9-5-5-84-5" />
      </g>
      <g
         style="fill:#ff00ff;fill-opacity:1"
         transform="matrix(0.34100299,0,0,0.34100299,188.42581,114.08745)"
         id="g4940-0-1-4-1-7">
        <path
           style="fill:#ff00ff;fill-opacity:1;stroke:#000000;stroke-width:9.04498863;stroke-linecap:round;stroke-linejoin:round;stroke-miterlimit:4;stroke-dasharray:none;stroke-opacity:1"
           d="m 29.167969,204.10156 c -7.320714,0 -13.214844,5.89413 -13.214844,13.21485 v 168.26367 c 0,7.32071 5.89413,13.21484 13.214844,13.21484 H 152.61914 c 7.32071,0 13.21289,-5.89413 13.21289,-13.21484 V 248.43271 h -31.48154 c -7.32071,0 -13.21484,-5.89217 -13.21485,-13.21289 v -31.11826 z"
           id="rect4897-6-9-0-8-0-4"
           transform="scale(0.26458333)" />
        <path
           style="fill:#ff00ff;fill-opacity:1;stroke:#000000;stroke-width:2.39315319;stroke-linecap:round;stroke-linejoin:round;stroke-miterlimit:4;stroke-dasharray:none;stroke-opacity:1"
           d="M 32.05047,54.00187 43.876391,65.731155"
           id="path4936-3-6-1-6-5" />
      </g>
      <g
         style="fill:#ff00ff;fill-opacity:1"
         transform="matrix(0.34100299,0,0,0.34100299,188.42581,87.721488)"
         id="g4940-6-3-2-32-2">
        <path
           style="fill:#ff00ff;fill-opacity:1;stroke:#000000;stroke-width:9.04498863;stroke-linecap:round;stroke-linejoin:round;stroke-miterlimit:4;stroke-dasharray:none;stroke-opacity:1"
           d="m 29.167969,204.10156 c -7.320714,0 -13.214844,5.89413 -13.214844,13.21485 v 168.26367 c 0,7.32071 5.89413,13.21484 13.214844,13.21484 H 152.61914 c 7.32071,0 13.21289,-5.89413 13.21289,-13.21484 V 248.43271 h -31.48154 c -7.32071,0 -13.21484,-5.89217 -13.21485,-13.21289 v -31.11826 z"
           id="rect4897-6-0-2-9-06-5"
           transform="scale(0.26458333)" />
        <path
           style="fill:#ff00ff;fill-opacity:1;stroke:#000000;stroke-width:2.39315319;stroke-linecap:round;stroke-linejoin:round;stroke-miterlimit:4;stroke-dasharray:none;stroke-opacity:1"
           d="M 32.05047,54.00187 43.876391,65.731155"
           id="path4936-6-0-3-1-4" />
      </g>
      <g
         id="g8928"
         transform="translate(-2.6165393,-14.813279)">
        <path
           style="stroke-width:0.34799281;stroke-miterlimit:4;stroke-dasharray:none"
           id="path5754-4"
           d="m 175.45892,140.59047 a 0.326245,0.326245 0 1 0 0,-0.65249 2.0187932,2.0187932 0 1 0 2.01879,2.02141 0.32624407,0.32624407 0 1 0 -0.65248,0 1.3689167,1.3689167 0 1 1 -1.36631,-1.36892 z" />
        <path
           style="stroke-width:0.34799281;stroke-miterlimit:4;stroke-dasharray:none"
           id="path5756-43"
           d="m 171.28823,143.08427 0.48414,0.0848 a 3.8548902,3.8548902 0 0 0 0.22446,0.54156 l -0.28188,0.40193 a 0.84692746,0.84692746 0 0 0 0.0953,1.08705 l 0.40846,0.40845 a 0.84692746,0.84692746 0 0 0 1.08704,0.0953 l 0.40194,-0.28188 a 3.866635,3.866635 0 0 0 0.54156,0.22446 l 0.0848,0.48414 a 0.84692746,0.84692746 0 0 0 0.83649,0.70469 h 0.5781 a 0.84692746,0.84692746 0 0 0 0.83779,-0.70469 l 0.0848,-0.48414 a 3.8601101,3.8601101 0 0 0 0.54156,-0.22446 l 0.40193,0.28188 a 0.84692746,0.84692746 0 0 0 1.08705,-0.0953 l 0.40846,-0.40845 a 0.84692746,0.84692746 0 0 0 0.0953,-1.08705 l -0.28188,-0.40193 a 3.8627201,3.8627201 0 0 0 0.22446,-0.54156 l 0.48414,-0.0848 a 0.32493828,0.32493828 0 1 0 -0.11222,-0.63943 l -0.6812,0.12006 a 0.32493828,0.32493828 0 0 0 -0.26099,0.23489 3.2128435,3.2128435 0 0 1 -0.31972,0.77254 0.32493828,0.32493828 0 0 0 0.0157,0.34843 l 0.40063,0.56506 a 0.19966087,0.19966087 0 0 1 -0.0222,0.26099 l -0.40845,0.40846 a 0.19966087,0.19966087 0 0 1 -0.261,0.0222 l -0.56636,-0.39149 a 0.32493828,0.32493828 0 0 0 -0.34842,-0.0157 3.2089286,3.2089286 0 0 1 -0.76994,0.31972 0.32493828,0.32493828 0 0 0 -0.23489,0.26099 l -0.12006,0.6812 a 0.19966087,0.19966087 0 0 1 -0.19575,0.15007 h -0.57679 a 0.19966087,0.19966087 0 0 1 -0.19706,-0.16443 l -0.12005,-0.68119 a 0.32493828,0.32493828 0 0 0 -0.2349,-0.261 3.2154534,3.2154534 0 0 1 -0.77254,-0.3171 0.32493828,0.32493828 0 0 0 -0.34843,0.0157 l -0.56636,0.39149 a 0.19966087,0.19966087 0 0 1 -0.26099,-0.0222 l -0.40194,-0.39671 a 0.19966087,0.19966087 0 0 1 -0.0222,-0.26099 l 0.39149,-0.56636 a 0.32493828,0.32493828 0 0 0 0.0222,-0.34713 3.2050137,3.2050137 0 0 1 -0.31972,-0.76993 0.32493828,0.32493828 0 0 0 -0.26099,-0.23489 l -0.6812,-0.12006 a 0.19966087,0.19966087 0 0 1 -0.16182,-0.19966 v -0.5768 a 0.19966087,0.19966087 0 0 1 0.16443,-0.19705 l 0.6812,-0.12006 a 0.32493828,0.32493828 0 0 0 0.26099,-0.23489 3.2063186,3.2063186 0 0 1 0.31972,-0.77124 0.32493828,0.32493828 0 0 0 -0.0157,-0.34843 l -0.39149,-0.56636 a 0.19966087,0.19966087 0 0 1 0.0222,-0.26099 l 0.39411,-0.40324 a 0.19966087,0.19966087 0 0 1 0.26099,-0.0248 l 0.56636,0.39149 a 0.32493828,0.32493828 0 0 0 0.34843,0.0157 3.2102336,3.2102336 0 0 1 0.77124,-0.31972 0.32493828,0.32493828 0 0 0 0.23489,-0.261 l 0.12006,-0.68119 a 0.32493828,0.32493828 0 0 0 -0.63944,-0.11223 l -0.0848,0.48415 a 3.8614151,3.8614151 0 0 0 -0.54156,0.22445 l -0.40194,-0.28187 a 0.84692746,0.84692746 0 0 0 -1.08704,0.0953 l -0.40846,0.40846 a 0.84692746,0.84692746 0 0 0 -0.094,1.08704 l 0.28188,0.40193 a 3.8575002,3.8575002 0 0 0 -0.22445,0.54156 l -0.48545,0.094 a 0.84692746,0.84692746 0 0 0 -0.70469,0.8391 v 0.5781 a 0.84692746,0.84692746 0 0 0 0.70469,0.83519 z" />
        <path
           style="stroke-width:0.34799281;stroke-miterlimit:4;stroke-dasharray:none"
           id="path5758-07"
           d="m 182.89465,137.71562 -0.36539,-0.16965 a 3.0275373,3.0275373 0 0 0 -0.21662,-0.81169 l 0.23098,-0.33016 a 0.81952302,0.81952302 0 0 0 -0.0914,-1.05051 l -0.39149,-0.39149 a 0.81952302,0.81952302 0 0 0 -1.0505,-0.0914 l -0.32625,0.2362 a 3.0275373,3.0275373 0 0 0 -0.81169,-0.21662 l -0.16965,-0.36539 a 0.81952302,0.81952302 0 0 0 -0.95654,-0.44631 l -0.52199,0.14094 a 0.81952302,0.81952302 0 0 0 -0.60943,0.87042 l 0.0352,0.39149 a 3.0888711,3.0888711 0 0 0 -0.59377,0.59376 l -0.40062,-0.0352 a 0.81952302,0.81952302 0 0 0 -0.86389,0.6042 l -0.14094,0.52199 a 0.81952302,0.81952302 0 0 0 0.4463,0.95655 l 0.36539,0.16964 a 3.0288423,3.0288423 0 0 0 0.21663,0.8117 l -0.23098,0.33015 a 0.81952302,0.81952302 0 0 0 0.0914,1.05051 l 0.39149,0.39149 a 0.81952302,0.81952302 0 0 0 1.0505,0.0914 l 0.33016,-0.23098 a 3.0288423,3.0288423 0 0 0 0.80386,0.22576 l 0.16965,0.36539 a 0.81952302,0.81952302 0 0 0 0.95524,0.44239 l 0.52199,-0.14094 a 0.81952302,0.81952302 0 0 0 0.60551,-0.86389 l -0.0352,-0.40063 a 3.094091,3.094091 0 0 0 0.31711,-0.27665 v 0 a 3.0875661,3.0875661 0 0 0 0.2871,-0.31972 l 0.40062,0.0352 a 0.81952302,0.81952302 0 0 0 0.86389,-0.6042 l 0.14094,-0.52199 a 0.81952302,0.81952302 0 0 0 -0.44761,-0.96176 z m -0.18139,0.78298 -0.14093,0.52199 a 0.17095146,0.17095146 0 0 1 -0.18009,0.1305 l -0.58593,-0.0457 a 0.32493828,0.32493828 0 0 0 -0.29884,0.14486 2.4337747,2.4337747 0 0 1 -0.68511,0.68511 0.32493828,0.32493828 0 0 0 -0.14485,0.29884 l 0.0522,0.58593 a 0.17095146,0.17095146 0 0 1 -0.1305,0.18008 l -0.52199,0.14094 a 0.17095146,0.17095146 0 0 1 -0.19966,-0.0926 l -0.24925,-0.53504 a 0.32493828,0.32493828 0 0 0 -0.27535,-0.18661 2.3920155,2.3920155 0 0 1 -0.93958,-0.24925 0.32493828,0.32493828 0 0 0 -0.33146,0.0248 l -0.47893,0.33799 a 0.17095146,0.17095146 0 0 1 -0.21923,-0.0196 l -0.3915,-0.39149 a 0.17095146,0.17095146 0 0 1 -0.0143,-0.21401 l 0.33799,-0.48284 a 0.32493828,0.32493828 0 0 0 0.0248,-0.32755 2.3920155,2.3920155 0 0 1 -0.25055,-0.93436 0.32493828,0.32493828 0 0 0 -0.18662,-0.27535 l -0.53503,-0.24925 a 0.17095146,0.17095146 0 0 1 -0.0927,-0.19966 l 0.14094,-0.52199 a 0.17095146,0.17095146 0 0 1 0.18009,-0.1305 l 0.58593,0.0522 a 0.32493828,0.32493828 0 0 0 0.29884,-0.14485 2.4337747,2.4337747 0 0 1 0.68511,-0.68511 0.32493828,0.32493828 0 0 0 0.14615,-0.30406 l -0.0522,-0.58593 a 0.17095146,0.17095146 0 0 1 0.13049,-0.18009 l 0.522,-0.14094 a 0.17095146,0.17095146 0 0 1 0.19966,0.0927 l 0.24924,0.53504 a 0.32493828,0.32493828 0 0 0 0.27535,0.1866 2.3920155,2.3920155 0 0 1 0.93436,0.25056 0.32493828,0.32493828 0 0 0 0.33277,-0.0274 l 0.48284,-0.33799 a 0.17095146,0.17095146 0 0 1 0.21924,0.0196 l 0.39149,0.39149 a 0.17095146,0.17095146 0 0 1 0.0196,0.21924 l -0.3419,0.47892 a 0.32493828,0.32493828 0 0 0 -0.0248,0.33146 2.3920155,2.3920155 0 0 1 0.25055,0.93436 0.32493828,0.32493828 0 0 0 0.18662,0.27535 l 0.53504,0.24925 a 0.17095146,0.17095146 0 0 1 0.0966,0.19966 z" />
        <path
           style="stroke-width:0.34799281;stroke-miterlimit:4;stroke-dasharray:none"
           id="path5760-8"
           d="m 179.4952,136.52548 a 1.3976261,1.3976261 0 1 0 1.39763,1.39763 1.400236,1.400236 0 0 0 -1.39763,-1.39763 z m 0,2.14668 a 0.74905448,0.74905448 0 1 1 0.74514,-0.74905 0.75035949,0.75035949 0 0 1 -0.74514,0.74905 z" />
      </g>
      <g
         transform="translate(-5.0340203,-105.78854)"
         id="g8785-9-9-3-1">
        <path
           id="rect4897-6-9-0-8-0-4-2-6-2-9-5-9"
           d="m 163.18541,268.13752 -10e-4,0.003 -9.37566,13.70097 c 0.21677,0.22646 0.52074,0.36897 0.86041,0.36897 h 11.13834 c 0.6605,0 1.19218,-0.53219 1.19218,-1.19269 v -12.37393 h -2.84066 c -0.40405,0 -0.75814,-0.20021 -0.97358,-0.50591 z"
           style="fill:#ff00ff;fill-opacity:1;stroke:none;stroke-width:0.8160724;stroke-linecap:round;stroke-linejoin:round;stroke-miterlimit:4;stroke-dasharray:none;stroke-opacity:1" />
        <g
           style="fill:none;fill-opacity:1"
           id="g4940-0-1-4-1-8-8-5-4-7-9"
           transform="matrix(0.34100299,0,0,0.34100299,152.03755,246.22929)">
          <path
             transform="scale(0.26458333)"
             id="rect4897-6-9-0-8-0-9-2-7-5-0-7"
             d="m 29.167969,204.10156 c -7.320714,0 -13.214844,5.89413 -13.214844,13.21485 v 168.26367 c 0,7.32071 5.89413,13.21484 13.214844,13.21484 H 152.61914 c 7.32071,0 13.21289,-5.89413 13.21289,-13.21484 V 248.43271 h -31.48154 c -7.32071,0 -13.21484,-5.89217 -13.21485,-13.21289 v -31.11826 z"
             style="fill:none;fill-opacity:1;stroke:#000000;stroke-width:9.04498863;stroke-linecap:round;stroke-linejoin:round;stroke-miterlimit:4;stroke-dasharray:none;stroke-opacity:1" />
          <path
             id="path4936-3-6-1-6-2-9-4-9-8-8"
             d="M 32.05047,54.00187 43.876391,65.731155"
             style="fill:none;fill-opacity:1;stroke:#000000;stroke-width:2.39315319;stroke-linecap:round;stroke-linejoin:round;stroke-miterlimit:4;stroke-dasharray:none;stroke-opacity:1" />
        </g>
      </g>
      <g
         transform="translate(36.388284,-105.78853)"
         id="g8785-9-9-3-1-2">
        <path
           id="rect4897-6-9-0-8-0-4-2-6-2-9-5-9-5"
           d="m 163.18541,268.13752 -10e-4,0.003 -9.37566,13.70097 c 0.21677,0.22646 0.52074,0.36897 0.86041,0.36897 h 11.13834 c 0.6605,0 1.19218,-0.53219 1.19218,-1.19269 v -12.37393 h -2.84066 c -0.40405,0 -0.75814,-0.20021 -0.97358,-0.50591 z"
           style="fill:#ff00ff;fill-opacity:1;stroke:none;stroke-width:0.8160724;stroke-linecap:round;stroke-linejoin:round;stroke-miterlimit:4;stroke-dasharray:none;stroke-opacity:1" />
        <g
           style="fill:none;fill-opacity:1"
           id="g4940-0-1-4-1-8-8-5-4-7-9-3"
           transform="matrix(0.34100299,0,0,0.34100299,152.03755,246.22929)">
          <path
             transform="scale(0.26458333)"
             id="rect4897-6-9-0-8-0-9-2-7-5-0-7-4"
             d="m 29.167969,204.10156 c -7.320714,0 -13.214844,5.89413 -13.214844,13.21485 v 168.26367 c 0,7.32071 5.89413,13.21484 13.214844,13.21484 H 152.61914 c 7.32071,0 13.21289,-5.89413 13.21289,-13.21484 V 248.43271 h -31.48154 c -7.32071,0 -13.21484,-5.89217 -13.21485,-13.21289 v -31.11826 z"
             style="fill:none;fill-opacity:1;stroke:#000000;stroke-width:9.04498863;stroke-linecap:round;stroke-linejoin:round;stroke-miterlimit:4;stroke-dasharray:none;stroke-opacity:1" />
          <path
             id="path4936-3-6-1-6-2-9-4-9-8-8-9"
             d="M 32.05047,54.00187 43.876391,65.731155"
             style="fill:none;fill-opacity:1;stroke:#000000;stroke-width:2.39315319;stroke-linecap:round;stroke-linejoin:round;stroke-miterlimit:4;stroke-dasharray:none;stroke-opacity:1" />
        </g>
      </g>
    </g>
  </g>
</svg>
