<?xml version="1.0" encoding="UTF-8" standalone="no"?>
<svg
   xmlns:dc="http://purl.org/dc/elements/1.1/"
   xmlns:cc="http://creativecommons.org/ns#"
   xmlns:rdf="http://www.w3.org/1999/02/22-rdf-syntax-ns#"
   xmlns:svg="http://www.w3.org/2000/svg"
   xmlns="http://www.w3.org/2000/svg"
   id="svg11680"
   version="1.1"
   viewBox="0 0 97.028893 71.105408"
   height="71.105408mm"
   width="97.028893mm">
  <defs
     id="defs11674" />
  <metadata
     id="metadata11677">
    <rdf:RDF>
      <cc:Work
         rdf:about="">
        <dc:format>image/svg+xml</dc:format>
        <dc:type
           rdf:resource="http://purl.org/dc/dcmitype/StillImage" />
        <dc:title></dc:title>
      </cc:Work>
    </rdf:RDF>
  </metadata>
  <g
     transform="translate(82.532299,-238.01277)"
     id="layer1">
    <g
       id="per-version-docs"
       transform="translate(-194.96925,26.5001)">
      <g
         style="fill:none;fill-opacity:0.35123967"
         transform="matrix(0.73037238,0,0,0.73037238,64.130391,173.6401)"
         id="g4946-3-4-6-3-8">
        <path
           id="rect4897-5-7-7-19-43"
           d="m 69.988688,52.206562 h 20.095536 c 1.936939,0 3.496279,1.559341 3.496279,3.49628 v 44.519908 c 0,1.93694 -1.55934,3.49628 -3.496279,3.49628 H 69.988688 c -1.936939,0 -3.496279,-1.55934 -3.496279,-3.49628 V 55.702842 c 0,-1.936939 1.55934,-3.49628 3.496279,-3.49628 z"
           style="fill:none;fill-opacity:0.35123967;stroke:#000000;stroke-width:0.70555556;stroke-miterlimit:4;stroke-dasharray:none;stroke-opacity:1" />
        <path
           id="path4899-6-8-3-4-1"
           d="m 81.170389,98.184525 a 1.1339285,1.1339285 0 0 1 -1.133928,1.133928 1.1339285,1.1339285 0 0 1 -1.133929,-1.133928 1.1339285,1.1339285 0 0 1 1.133929,-1.133929 1.1339285,1.1339285 0 0 1 1.133928,1.133929 z"
           style="fill:none;fill-opacity:0.35123967;stroke:#000000;stroke-width:0.70555556;stroke-miterlimit:4;stroke-dasharray:none;stroke-opacity:1" />
        <path
           style="fill:none;fill-opacity:0.35123967;stroke:#000000;stroke-width:0.70555556;stroke-linecap:butt;stroke-linejoin:miter;stroke-miterlimit:4;stroke-dasharray:none;stroke-opacity:1"
           d="M 66.492409,92.136903 H 93.580503"
           id="path4901-2-4-6-7-4" />
        <path
           style="fill:none;fill-opacity:0.35123967;stroke:#000000;stroke-width:0.70555556;stroke-linecap:butt;stroke-linejoin:miter;stroke-miterlimit:4;stroke-dasharray:none;stroke-opacity:1"
           d="M 66.492409,60.197915 H 93.580503"
           id="path4903-9-5-5-84-9" />
      </g>
      <g
         transform="matrix(0.34100299,0,0,0.34100299,149.92087,219.87598)"
         id="g4940-0-1-4-1-8">
        <path
           style="fill:#ffffff;stroke:#000000;stroke-width:9.04498863;stroke-linecap:round;stroke-linejoin:round;stroke-miterlimit:4;stroke-dasharray:none;stroke-opacity:1"
           d="m 29.167969,204.10156 c -7.320714,0 -13.214844,5.89413 -13.214844,13.21485 v 168.26367 c 0,7.32071 5.89413,13.21484 13.214844,13.21484 H 152.61914 c 7.32071,0 13.21289,-5.89413 13.21289,-13.21484 V 248.43271 h -31.48154 c -7.32071,0 -13.21484,-5.89217 -13.21485,-13.21289 v -31.11826 z"
           id="rect4897-6-9-0-8-0-9"
           transform="scale(0.26458333)" />
        <path
           style="fill:none;stroke:#000000;stroke-width:2.39315319;stroke-linecap:round;stroke-linejoin:round;stroke-miterlimit:4;stroke-dasharray:none;stroke-opacity:1"
           d="M 32.05047,54.00187 43.876391,65.731155"
           id="path4936-3-6-1-6-2" />
      </g>
      <g
         transform="matrix(0.34100299,0,0,0.34100299,149.92087,193.51002)"
         id="g4940-6-3-2-32-6">
        <path
           style="fill:#ffffff;stroke:#000000;stroke-width:9.04498863;stroke-linecap:round;stroke-linejoin:round;stroke-miterlimit:4;stroke-dasharray:none;stroke-opacity:1"
           d="m 29.167969,204.10156 c -7.320714,0 -13.214844,5.89413 -13.214844,13.21485 v 168.26367 c 0,7.32071 5.89413,13.21484 13.214844,13.21484 H 152.61914 c 7.32071,0 13.21289,-5.89413 13.21289,-13.21484 V 248.43271 h -31.48154 c -7.32071,0 -13.21484,-5.89217 -13.21485,-13.21289 v -31.11826 z"
           id="rect4897-6-0-2-9-06-6"
           transform="scale(0.26458333)" />
        <path
           style="fill:none;stroke:#000000;stroke-width:2.39315319;stroke-linecap:round;stroke-linejoin:round;stroke-miterlimit:4;stroke-dasharray:none;stroke-opacity:1"
           d="M 32.05047,54.00187 43.876391,65.731155"
           id="path4936-6-0-3-1-49" />
      </g>
      <g
         style="fill:#ff00ff;fill-opacity:1"
         transform="matrix(0.34100299,0,0,0.34100299,147.06535,223.17433)"
         id="g4940-0-1-4-1-7-2">
        <path
           style="fill:#ff00ff;fill-opacity:1;stroke:#000000;stroke-width:9.04498863;stroke-linecap:round;stroke-linejoin:round;stroke-miterlimit:4;stroke-dasharray:none;stroke-opacity:1"
           d="m 29.167969,204.10156 c -7.320714,0 -13.214844,5.89413 -13.214844,13.21485 v 168.26367 c 0,7.32071 5.89413,13.21484 13.214844,13.21484 H 152.61914 c 7.32071,0 13.21289,-5.89413 13.21289,-13.21484 V 248.43271 h -31.48154 c -7.32071,0 -13.21484,-5.89217 -13.21485,-13.21289 v -31.11826 z"
           id="rect4897-6-9-0-8-0-4-2"
           transform="scale(0.26458333)" />
        <path
           style="fill:#ff00ff;fill-opacity:1;stroke:#000000;stroke-width:2.39315319;stroke-linecap:round;stroke-linejoin:round;stroke-miterlimit:4;stroke-dasharray:none;stroke-opacity:1"
           d="M 32.05047,54.00187 43.876391,65.731155"
           id="path4936-3-6-1-6-5-6" />
      </g>
      <g
         style="fill:#ff00ff;fill-opacity:1"
         transform="matrix(0.34100299,0,0,0.34100299,147.06535,196.80837)"
         id="g4940-6-3-2-32-2-1">
        <path
           style="fill:#ff00ff;fill-opacity:1;stroke:#000000;stroke-width:9.04498863;stroke-linecap:round;stroke-linejoin:round;stroke-miterlimit:4;stroke-dasharray:none;stroke-opacity:1"
           d="m 29.167969,204.10156 c -7.320714,0 -13.214844,5.89413 -13.214844,13.21485 v 168.26367 c 0,7.32071 5.89413,13.21484 13.214844,13.21484 H 152.61914 c 7.32071,0 13.21289,-5.89413 13.21289,-13.21484 V 248.43271 h -31.48154 c -7.32071,0 -13.21484,-5.89217 -13.21485,-13.21289 v -31.11826 z"
           id="rect4897-6-0-2-9-06-5-0"
           transform="scale(0.26458333)" />
        <path
           style="fill:#ff00ff;fill-opacity:1;stroke:#000000;stroke-width:2.39315319;stroke-linecap:round;stroke-linejoin:round;stroke-miterlimit:4;stroke-dasharray:none;stroke-opacity:1"
           d="M 32.05047,54.00187 43.876391,65.731155"
           id="path4936-6-0-3-1-4-6" />
      </g>
      <g
         id="g5802-7-1"
         transform="matrix(0.49321814,0,0,0.49321814,169.68301,231.60049)">
        <path
           style="stroke-width:0.70555556;stroke-miterlimit:4;stroke-dasharray:none"
           id="path5754-4-5"
           d="m 5.6823485,0.91734501 a 0.6614585,0.6614585 0 1 0 0,-1.322917 4.0931042,4.0931042 0 1 0 4.09311,4.09839599 0.66146,0.66146 0 1 0 -1.32292,0 2.7754792,2.7754792 0 1 1 -2.77019,-2.77547899 z" />
        <path
           style="stroke-width:0.70555556;stroke-miterlimit:4;stroke-dasharray:none"
           id="path5756-43-9"
           d="m -2.7737315,5.973532 0.98161,0.17198 a 7.8157917,7.8157917 0 0 0 0.45508,1.09802 l -0.5715,0.814917 a 1.7171458,1.7171458 0 0 0 0.19314,2.203979 l 0.82815001,0.828146 A 1.7171458,1.7171458 0 0 0 1.3167285,11.28372 l 0.81492,-0.5715 a 7.8396042,7.8396042 0 0 0 1.09802,0.455083 l 0.17198,0.981604 a 1.7171458,1.7171458 0 0 0 1.69598,1.42875 h 1.1721 a 1.7171458,1.7171458 0 0 0 1.69862,-1.42875 l 0.17198,-0.981604 a 7.826375,7.826375 0 0 0 1.09802,-0.455083 l 0.8149205,0.5715 a 1.7171458,1.7171458 0 0 0 2.20398,-0.193146 l 0.82815,-0.828146 a 1.7171458,1.7171458 0 0 0 0.19314,-2.203979 l -0.5715,-0.814917 a 7.8316667,7.8316667 0 0 0 0.45509,-1.09802 l 0.9816,-0.17198 a 0.6588125,0.6588125 0 1 0 -0.22754,-1.296458 l -1.38113,0.243417 a 0.6588125,0.6588125 0 0 0 -0.52916,0.47625 6.5140417,6.5140417 0 0 1 -0.64823,1.566333 0.6588125,0.6588125 0 0 0 0.0318,0.706438 l 0.81227,1.145645 a 0.4048125,0.4048125 0 0 1 -0.045,0.529167 l -0.82815,0.828146 a 0.4048125,0.4048125 0 0 1 -0.52916,0.04498 L 9.6511285,9.4237 a 0.6588125,0.6588125 0 0 0 -0.70643,-0.03175 6.5061042,6.5061042 0 0 1 -1.56104,0.648229 0.6588125,0.6588125 0 0 0 -0.47625,0.529167 l -0.24342,1.381125 a 0.4048125,0.4048125 0 0 1 -0.39688,0.304271 h -1.16945 a 0.4048125,0.4048125 0 0 1 -0.39953,-0.333375 l -0.24341,-1.381125 a 0.6588125,0.6588125 0 0 0 -0.47625,-0.529167 6.5193333,6.5193333 0 0 1 -1.56634,-0.642937 0.6588125,0.6588125 0 0 0 -0.70643,0.03175 l -1.14828999,0.79375 a 0.4048125,0.4048125 0 0 1 -0.52917,-0.04498 l -0.81492,-0.804333 a 0.4048125,0.4048125 0 0 1 -0.045,-0.529167 l 0.79375,-1.148291 a 0.6588125,0.6588125 0 0 0 0.045,-0.703792 6.4981667,6.4981667 0 0 1 -0.64823,-1.561042 0.6588125,0.6588125 0 0 0 -0.52916001,-0.47625 l -1.38113,-0.243416 a 0.4048125,0.4048125 0 0 1 -0.32808,-0.404813 V 3.108096 a 0.4048125,0.4048125 0 0 1 0.33337,-0.399521 l 1.38113,-0.243417 a 0.6588125,0.6588125 0 0 0 0.52916001,-0.47625 6.5008125,6.5008125 0 0 1 0.64823,-1.56368699 0.6588125,0.6588125 0 0 0 -0.0318,-0.706438 l -0.79375,-1.14829101 a 0.4048125,0.4048125 0 0 1 0.045,-0.529167 l 0.79904,-0.817562 a 0.4048125,0.4048125 0 0 1 0.52917,-0.05027 l 1.14828999,0.79375 a 0.6588125,0.6588125 0 0 0 0.70644,0.03175 6.50875,6.50875 0 0 1 1.56369,-0.648229 0.6588125,0.6588125 0 0 0 0.47625,-0.529167 l 0.24341,-1.381125 a 0.6588125,0.6588125 0 0 0 -1.29645,-0.227542 l -0.17198,0.981604 a 7.8290208,7.8290208 0 0 0 -1.09802,0.455084 l -0.81492,-0.5715 a 1.7171458,1.7171458 0 0 0 -2.20397999,0.193146 l -0.82815001,0.828145 a 1.7171458,1.7171458 0 0 0 -0.1905,2.20398001 l 0.5715,0.814916 a 7.8210833,7.8210833 0 0 0 -0.45508,1.09802099 l -0.98425,0.1905 a 1.7171458,1.7171458 0 0 0 -1.42875,1.701271 v 1.172104 a 1.7171458,1.7171458 0 0 0 1.42875,1.693333 z" />
        <path
           style="stroke-width:0.70555556;stroke-miterlimit:4;stroke-dasharray:none"
           id="path5758-07-4"
           d="m 20.758309,-4.911426 -0.74083,-0.343958 a 6.1383333,6.1383333 0 0 0 -0.43921,-1.645709 l 0.46831,-0.669395 a 1.6615833,1.6615833 0 0 0 -0.1852,-2.129898 l -0.79375,-0.79375 a 1.6615833,1.6615833 0 0 0 -2.1299,-0.18521 l -0.66146,0.4789 a 6.1383333,6.1383333 0 0 0 -1.64571,-0.43921 l -0.34396,-0.74083 a 1.6615833,1.6615833 0 0 0 -1.93939,-0.90488 l -1.05833,0.28575 a 1.6615833,1.6615833 0 0 0 -1.23561,1.76477 l 0.0714,0.79375 a 6.2626875,6.2626875 0 0 0 -1.2038605,1.203858 l -0.81227,-0.07144 a 1.6615833,1.6615833 0 0 0 -1.75154,1.225021 l -0.28575,1.058333 a 1.6615833,1.6615833 0 0 0 0.90488,1.939396 l 0.74083,0.343958 a 6.1409792,6.1409792 0 0 0 0.43921,1.645709 l -0.46831,0.669396 a 1.6615833,1.6615833 0 0 0 0.1852,2.12989501 L 8.6668085,1.49678 a 1.6615833,1.6615833 0 0 0 2.1299005,0.185209 l 0.6694,-0.468313 a 6.1409792,6.1409792 0 0 0 1.62983,0.457729 l 0.34396,0.740834 a 1.6615833,1.6615833 0 0 0 1.93675,0.896937 l 1.05833,-0.28575 a 1.6615833,1.6615833 0 0 0 1.22767,-1.751541 l -0.0714,-0.81227099 a 6.2732708,6.2732708 0 0 0 0.64294,-0.560917 v 0 a 6.2600417,6.2600417 0 0 0 0.58208,-0.648229 l 0.81227,0.07144 a 1.6615833,1.6615833 0 0 0 1.75154,-1.22502001 l 0.28575,-1.058334 a 1.6615833,1.6615833 0 0 0 -0.90752,-1.94998 z m -0.36777,1.5875 -0.28575,1.058333 a 0.34660417,0.34660417 0 0 1 -0.36512,0.264584 l -1.18798,-0.0926 a 0.6588125,0.6588125 0 0 0 -0.6059,0.293687 4.9344792,4.9344792 0 0 1 -1.38906,1.38906301 0.6588125,0.6588125 0 0 0 -0.29369,0.605895 l 0.10584,1.18797999 a 0.34660417,0.34660417 0 0 1 -0.26459,0.365125 l -1.05833,0.28575 a 0.34660417,0.34660417 0 0 1 -0.40481,-0.187855 l -0.50536,-1.08479099 a 0.6588125,0.6588125 0 0 0 -0.55827,-0.378354 4.8498125,4.8498125 0 0 1 -1.905,-0.505355 0.6588125,0.6588125 0 0 0 -0.67204,0.05027 l -0.97102,0.685271 a 0.34660417,0.34660417 0 0 1 -0.4445005,-0.03969 l -0.79375,-0.79375 a 0.34660417,0.34660417 0 0 1 -0.0291,-0.433917 l 0.68528,-0.97895801 a 0.6588125,0.6588125 0 0 0 0.0503,-0.664105 4.8498125,4.8498125 0 0 1 -0.508,-1.894416 0.6588125,0.6588125 0 0 0 -0.37836,-0.558271 l -1.08479,-0.505354 a 0.34660417,0.34660417 0 0 1 -0.18785,-0.404813 l 0.28575,-1.058333 a 0.34660417,0.34660417 0 0 1 0.36512,-0.264583 l 1.18798,0.105833 a 0.6588125,0.6588125 0 0 0 0.6059,-0.293688 4.9344792,4.9344792 0 0 1 1.3890605,-1.389058 0.6588125,0.6588125 0 0 0 0.29633,-0.61648 l -0.10583,-1.18798 a 0.34660417,0.34660417 0 0 1 0.26458,-0.36513 l 1.05834,-0.28575 a 0.34660417,0.34660417 0 0 1 0.40481,0.18786 l 0.50535,1.08479 a 0.6588125,0.6588125 0 0 0 0.55827,0.37835 4.8498125,4.8498125 0 0 1 1.89442,0.508 0.6588125,0.6588125 0 0 0 0.67469,-0.0556 l 0.97896,-0.68527 a 0.34660417,0.34660417 0 0 1 0.4445,0.0397 l 0.79375,0.79375 a 0.34660417,0.34660417 0 0 1 0.0397,0.444497 l -0.69321,0.971021 a 0.6588125,0.6588125 0 0 0 -0.0503,0.672041 4.8498125,4.8498125 0 0 1 0.508,1.894417 0.6588125,0.6588125 0 0 0 0.37836,0.558271 l 1.08479,0.505354 a 0.34660417,0.34660417 0 0 1 0.19579,0.404812 z" />
        <path
           style="stroke-width:0.70555556;stroke-miterlimit:4;stroke-dasharray:none"
           id="path5760-8-9"
           d="m 13.865919,-7.324426 a 2.8336875,2.8336875 0 1 0 2.83368,2.833688 2.8389792,2.8389792 0 0 0 -2.83368,-2.833688 z m 0,4.352396 a 1.5187083,1.5187083 0 1 1 1.51077,-1.518708 1.5213542,1.5213542 0 0 1 -1.51077,1.518708 z" />
      </g>
      <g
         style="fill:#ff00ff;fill-opacity:1"
         transform="matrix(0.73037237,0,0,0.73037237,140.85957,173.6401)"
         id="g4946-3-4-6-3-8-1">
        <path
           id="rect4897-5-7-7-19-43-9"
           d="m 69.988688,52.206562 h 20.095536 c 1.936939,0 3.496279,1.559341 3.496279,3.49628 v 44.519908 c 0,1.93694 -1.55934,3.49628 -3.496279,3.49628 H 69.988688 c -1.936939,0 -3.496279,-1.55934 -3.496279,-3.49628 V 55.702842 c 0,-1.936939 1.55934,-3.49628 3.496279,-3.49628 z"
           style="fill:#ff00ff;fill-opacity:1;stroke:#000000;stroke-width:0.70555556;stroke-miterlimit:4;stroke-dasharray:none;stroke-opacity:1" />
        <path
           id="path4899-6-8-3-4-1-6"
           d="m 81.170389,98.184525 a 1.1339285,1.1339285 0 0 1 -1.133928,1.133928 1.1339285,1.1339285 0 0 1 -1.133929,-1.133928 1.1339285,1.1339285 0 0 1 1.133929,-1.133929 1.1339285,1.1339285 0 0 1 1.133928,1.133929 z"
           style="fill:#ffffff;fill-opacity:1;stroke:#000000;stroke-width:0.70555556;stroke-miterlimit:4;stroke-dasharray:none;stroke-opacity:1" />
        <path
           style="fill:#ff00ff;fill-opacity:1;stroke:#000000;stroke-width:0.70555556;stroke-linecap:butt;stroke-linejoin:miter;stroke-miterlimit:4;stroke-dasharray:none;stroke-opacity:1"
           d="M 66.492409,92.136903 H 93.580503"
           id="path4901-2-4-6-7-4-9" />
        <path
           style="fill:#ff00ff;fill-opacity:1;stroke:#000000;stroke-width:0.70555556;stroke-linecap:butt;stroke-linejoin:miter;stroke-miterlimit:4;stroke-dasharray:none;stroke-opacity:1"
           d="M 66.492409,60.197915 H 93.580503"
           id="path4903-9-5-5-84-9-3" />
      </g>
      <g
         id="g8785"
         transform="translate(-2.1166667)">
        <path
           id="rect4897-6-9-0-8-0-4-2-6"
           d="m 163.18541,268.13752 -10e-4,0.003 -9.37566,13.70097 c 0.21677,0.22646 0.52074,0.36897 0.86041,0.36897 h 11.13834 c 0.6605,0 1.19218,-0.53219 1.19218,-1.19269 v -12.37393 h -2.84066 c -0.40405,0 -0.75814,-0.20021 -0.97358,-0.50591 z"
           style="fill:#ff00ff;fill-opacity:1;stroke:none;stroke-width:0.8160724;stroke-linecap:round;stroke-linejoin:round;stroke-miterlimit:4;stroke-dasharray:none;stroke-opacity:1" />
        <g
           style="fill:none;fill-opacity:1"
           id="g4940-0-1-4-1-8-8"
           transform="matrix(0.34100299,0,0,0.34100299,152.03755,246.22929)">
          <path
             transform="scale(0.26458333)"
             id="rect4897-6-9-0-8-0-9-2"
             d="m 29.167969,204.10156 c -7.320714,0 -13.214844,5.89413 -13.214844,13.21485 v 168.26367 c 0,7.32071 5.89413,13.21484 13.214844,13.21484 H 152.61914 c 7.32071,0 13.21289,-5.89413 13.21289,-13.21484 V 248.43271 h -31.48154 c -7.32071,0 -13.21484,-5.89217 -13.21485,-13.21289 v -31.11826 z"
             style="fill:none;fill-opacity:1;stroke:#000000;stroke-width:9.04498863;stroke-linecap:round;stroke-linejoin:round;stroke-miterlimit:4;stroke-dasharray:none;stroke-opacity:1" />
          <path
             id="path4936-3-6-1-6-2-9"
             d="M 32.05047,54.00187 43.876391,65.731155"
             style="fill:none;fill-opacity:1;stroke:#000000;stroke-width:2.39315319;stroke-linecap:round;stroke-linejoin:round;stroke-miterlimit:4;stroke-dasharray:none;stroke-opacity:1" />
        </g>
      </g>
    </g>
  </g>
</svg>
